<svg xmlns="http://www.w3.org/2000/svg" width="120" height="87"><g fill="#FFF"><path d="M46.4646465 0h31.5970921c25.8412654 0 41.1301804 15.7122157 41.1301804 43.2236432 0 27.5114275-15.228959 43.6450437-41.1301804 43.6450437H46.4646465V0Zm15.4687851 13.1236131v60.6214606h14.5094806c17.3873942 0 26.9804388-10.6554106 26.9804388-30.4612304 0-19.4446195-9.7129577-30.1602302-26.9804388-30.1602302H61.9334316Z"/><path d="M45.1410658 86.8686869V70.4340704H0V57.0696571C7.8369906 42.8624429 17.9310345 27.3910274 37.5548589 0h23.0094044v57.7318577h12.1630094v12.7022127H60.5642633v16.4346165H45.1410658ZM14.6708464 57.6716577v.4214004h30.7210031V11.4982115h-.2507837C30.5329154 31.8458318 21.8808777 44.6684447 14.6708464 57.6716577Z"/></g></svg>